<?xml version='1.0' encoding='UTF-8'?>
<svg width="41mm" height="41mm" version="1.1" viewBox="0 0 41 41" xmlns="http://www.w3.org/2000/svg"><path d="M4,4H5V5H4zM5,4H6V5H5zM6,4H7V5H6zM7,4H8V5H7zM8,4H9V5H8zM9,4H10V5H9zM10,4H11V5H10zM13,4H14V5H13zM14,4H15V5H14zM16,4H17V5H16zM18,4H19V5H18zM19,4H20V5H19zM22,4H23V5H22zM23,4H24V5H23zM24,4H25V5H24zM27,4H28V5H27zM28,4H29V5H28zM30,4H31V5H30zM31,4H32V5H31zM32,4H33V5H32zM33,4H34V5H33zM34,4H35V5H34zM35,4H36V5H35zM36,4H37V5H36zM4,5H5V6H4zM10,5H11V6H10zM12,5H13V6H12zM15,5H16V6H15zM16,5H17V6H16zM20,5H21V6H20zM22,5H23V6H22zM24,5H25V6H24zM30,5H31V6H30zM36,5H37V6H36zM4,6H5V7H4zM6,6H9V9H6zM10,6H11V7H10zM12,6H14V8H12zM15,6H16V7H15zM18,6H19V7H18zM20,6H21V7H20zM23,6H24V7H23zM24,6H25V7H24zM26,6H27V7H26zM30,6H31V7H30zM32,6H35V10H32zM36,6H37V7H36zM4,7H5V8H4zM6,7H9V10H6zM10,7H11V8H10zM13,7H14V8H13zM14,7H15V8H14zM16,7H17V8H16zM18,7H20V8H18zM21,7H22V8H21zM25,7H26V8H25zM27,7H28V8H27zM30,7H31V8H30zM32,7H35V10H32zM36,7H37V8H36zM4,8H5V9H4zM10,8H11V9H10zM13,8H14V9H13zM15,8H17V9H15zM19,8H21V9H19zM22,8H24V9H22zM26,8H27V9H26zM30,8H31V9H30zM36,8H37V9H36zM4,9H5V10H4zM6,9H9V10H6zM10,9H11V10H10zM12,9H13V10H12zM17,9H18V10H17zM19,9H20V10H19zM21,9H22V10H21zM24,9H25V10H24zM26,9H28V10H26zM30,9H31V10H30zM32,9H35V10H32zM36,9H37V10H36zM4,10H5V11H4zM10,10H11V11H10zM12,10H13V11H12zM16,10H18V11H16zM20,10H22V11H20zM23,10H25V11H23zM26,10H27V11H26zM30,10H31V11H30zM36,10H37V11H36zM4,11H11V12H4zM12,11H13V12H12zM14,11H15V12H14zM16,11H17V12H16zM18,11H19V12H18zM20,11H21V12H20zM22,11H23V12H22zM24,11H25V12H24zM26,11H27V12H26zM28,11H29V12H28zM30,11H37V12H30zM12,12H13V13H12zM14,12H16V13H14zM17,12H18V13H17zM19,12H21V13H19zM24,12H25V13H24zM26,12H29V13H26zM4,13H5V14H4zM7,13H11V14H7zM12,13H14V14H12zM15,13H16V14H15zM18,13H19V14H18zM21,13H22V14H21zM24,13H25V14H24zM26,13H27V14H26zM30,13H33V14H30zM35,13H37V14H35zM4,14H6V15H4zM7,14H8V15H7zM10,14H12V15H10zM14,14H15V15H14zM16,14H18V15H16zM20,14H21V15H20zM23,14H24V15H23zM25,14H27V15H25zM29,14H30V15H29zM32,14H33V15H32zM36,14H37V15H36zM5,15H7V16H5zM8,15H9V16H8zM10,15H11V16H10zM12,15H14V16H12zM15,15H16V16H15zM17,15H18V16H17zM21,15H22V16H21zM23,15H25V16H23zM28,15H29V16H28zM30,15H33V16H30zM35,15H36V16H35zM4,16H5V17H4zM6,16H8V17H6zM11,16H12V17H11zM13,16H14V17H13zM17,16H19V17H17zM20,16H21V17H20zM23,16H25V17H23zM26,16H27V17H26zM29,16H30V17H29zM33,16H35V17H33zM4,17H5V18H4zM7,17H9V18H7zM11,17H12V18H11zM15,17H17V18H15zM19,17H21V18H19zM24,17H26V18H24zM27,17H29V18H27zM30,17H31V18H30zM34,17H36V18H34zM5,18H8V19H5zM9,18H10V19H9zM12,18H13V19H12zM14,18H16V19H14zM18,18H20V19H18zM21,18H22V19H21zM23,18H24V19H23zM26,18H28V19H26zM31,18H33V19H31zM35,18H37V19H35zM4,19H5V20H4zM6,19H7V20H6zM8,19H10V20H8zM11,19H12V20H11zM13,19H14V20H13zM15,19H17V20H15zM18,19H20V20H18zM21,19H22V20H21zM23,19H24V20H23zM25,19H26V20H25zM27,19H29V20H27zM30,19H32V20H30zM34,19H35V20H34zM36,19H37V20H36zM4,20H5V21H4zM7,20H8V21H7zM9,20H10V21H9zM12,20H13V21H12zM15,20H16V21H15zM17,20H18V21H17zM19,20H21V21H19zM23,20H24V21H23zM26,20H27V21H26zM29,20H31V21H29zM33,20H34V21H33zM35,20H36V21H35zM4,21H6V22H4zM7,21H8V22H7zM10,21H11V22H10zM13,21H15V22H13zM16,21H17V22H16zM18,21H19V22H18zM21,21H23V22H21zM25,21H27V22H25zM29,21H30V22H29zM31,21H33V22H31zM34,21H36V22H34zM4,22H5V23H4zM6,22H7V23H6zM8,22H11V23H8zM12,22H13V23H12zM15,22H16V23H15zM17,22H19V23H17zM21,22H22V23H21zM23,22H24V23H23zM25,22H26V23H25zM28,22H29V23H28zM31,22H32V23H31zM34,22H35V23H34zM36,22H37V23H36zM5,23H6V24H5zM8,23H10V24H8zM12,23H14V24H12zM16,23H17V24H16zM18,23H19V24H18zM20,23H21V24H20zM23,23H25V24H23zM26,23H28V24H26zM29,23H30V24H29zM32,23H34V24H32zM4,24H5V25H4zM7,24H8V25H7zM10,24H11V25H10zM13,24H14V25H13zM16,24H18V25H16zM19,24H20V25H19zM21,24H22V25H21zM24,24H25V25H24zM26,24H27V25H26zM29,24H30V25H29zM31,24H33V25H31zM35,24H36V25H35zM4,25H6V26H4zM7,25H9V26H7zM11,25H13V26H11zM14,25H15V26H14zM17,25H18V26H17zM19,25H22V26H19zM23,25H24V26H23zM27,25H29V26H27zM30,25H31V26H30zM33,25H35V26H33zM36,25H37V26H36zM5,26H7V27H5zM9,26H10V27H9zM11,26H12V27H11zM13,26H16V27H13zM18,26H20V27H18zM22,26H23V27H22zM25,26H26V27H25zM28,26H29V27H28zM31,26H34V27H31zM35,26H36V27H35zM4,27H5V28H4zM6,27H8V28H6zM9,27H11V28H9zM12,27H13V28H12zM16,27H17V28H16zM18,27H20V28H18zM21,27H22V28H21zM23,27H25V28H23zM27,27H28V28H27zM30,27H31V28H30zM34,27H37V28H34zM12,28H13V29H12zM15,28H16V29H15zM18,28H19V29H18zM21,28H22V29H21zM24,28H25V29H24zM26,28H27V29H26zM28,28H29V29H28zM30,28H32V29H30zM33,28H34V29H33zM35,28H36V29H35zM4,29H11V30H4zM13,29H15V30H13zM17,29H18V30H17zM19,29H20V30H19zM22,29H24V30H22zM26,29H29V30H26zM30,29H31V30H30zM32,29H35V30H32zM36,29H37V30H36zM4,30H5V31H4zM10,30H11V31H10zM13,30H14V31H13zM15,30H17V31H15zM18,30H20V31H18zM21,30H22V31H21zM23,30H25V31H23zM27,30H28V31H27zM30,30H31V31H30zM32,30H33V31H32zM35,30H37V31H35zM4,31H5V32H4zM6,31H9V35H6zM10,31H11V32H10zM12,31H15V32H12zM16,31H17V32H16zM20,31H21V32H20zM22,31H24V32H22zM25,31H26V32H25zM27,31H28V32H27zM30,31H31V32H30zM32,31H34V32H32zM35,31H36V32H35zM4,32H5V33H4zM6,32H9V35H6zM10,32H11V33H10zM14,32H15V33H14zM16,32H18V33H16zM19,32H21V33H19zM23,32H24V33H23zM27,32H29V33H27zM30,32H31V33H30zM33,32H35V33H33zM36,32H37V33H36zM4,33H5V34H4zM6,33H9V35H6zM10,33H11V34H10zM12,33H13V34H12zM15,33H16V34H15zM17,33H19V34H17zM21,33H22V34H21zM24,33H26V34H24zM28,33H30V34H28zM32,33H33V34H32zM35,33H36V34H35zM4,34H5V35H4zM10,34H11V35H10zM12,34H14V35H12zM15,34H16V35H15zM18,34H20V35H18zM22,34H23V35H22zM25,34H26V35H25zM27,34H29V35H27zM30,34H31V35H30zM33,34H34V35H33zM36,34H37V35H36zM4,35H11V36H4zM12,35H13V36H12zM14,35H16V36H14zM17,35H18V36H17zM19,35H20V36H19zM21,35H23V36H21zM24,35H26V36H24zM28,35H29V36H28zM31,35H32V36H31zM34,35H35V36H34zM36,35H37V36H36zM12,36H14V37H12zM16,36H18V37H16zM19,36H22V37H19zM23,36H24V37H23zM25,36H27V37H25zM28,36H30V37H28zM32,36H33V37H32zM35,36H37V37H35z"/></svg>